HIERARCHY
ROOT Hips
{
	OFFSET 0.000000 0.000000 0.000000
	CHANNELS 6 Xposition Yposition Zposition Zrotation Yrotation Xrotation 
	JOINT LHipJoint
	{
		OFFSET 0.000000 0.000000 0.000000
		CHANNELS 3 Zrotation Yrotation Xrotation
		JOINT LeftUpLeg
		{
			OFFSET 1.363060 -1.794630 0.839290
			CHANNELS 3 Zrotation Yrotation Xrotation
			JOINT LeftLeg
			{
				OFFSET 2.448110 -6.726130 0.000000
				CHANNELS 3 Zrotation Yrotation Xrotation
				JOINT LeftFoot
				{
					OFFSET 2.562200 -7.039590 0.000000
					CHANNELS 3 Zrotation Yrotation Xrotation
					JOINT LeftToeBase
					{
						OFFSET 0.157640 -0.433110 2.322550
						CHANNELS 3 Zrotation Yrotation Xrotation
						End Site
						{
							OFFSET 0.000000 0.000000 0.000000
						}
					}
				}
			}
		}
	}
	JOINT RHipJoint
	{
		OFFSET 0.000000 0.000000 0.000000
		CHANNELS 3 Zrotation Yrotation Xrotation
		JOINT RightUpLeg
		{
			OFFSET -1.305520 -1.794630 0.839290
			CHANNELS 3 Zrotation Yrotation Xrotation
			JOINT RightLeg
			{
				OFFSET -2.542530 -6.985550 0.000000
				CHANNELS 3 Zrotation Yrotation Xrotation
				JOINT RightFoot
				{
					OFFSET -2.568260 -7.056230 0.000000
					CHANNELS 3 Zrotation Yrotation Xrotation
					JOINT RightToeBase
					{
						OFFSET -0.164730 -0.452590 2.363150
						CHANNELS 3 Zrotation Yrotation Xrotation
						End Site
						{
							OFFSET 0.000000 0.000000 0.000000
						}
					}
				}
			}
		}
	}
	JOINT LowerBack
	{
		OFFSET 0.000000 0.000000 0.000000
		CHANNELS 3 Zrotation Yrotation Xrotation
		JOINT Spine
		{
			OFFSET 0.028270 2.035590 -0.193380
			CHANNELS 3 Zrotation Yrotation Xrotation
			JOINT Spine1
			{
				OFFSET 0.056720 2.048850 -0.042750
				CHANNELS 3 Zrotation Yrotation Xrotation
				JOINT Neck
				{
					OFFSET 0.000000 0.000000 0.000000
					CHANNELS 3 Zrotation Yrotation Xrotation
					JOINT Neck1
					{
						OFFSET -0.054170 1.746240 0.172020
						CHANNELS 3 Zrotation Yrotation Xrotation
						JOINT Head
						{
							OFFSET 0.104070 1.761360 -0.123970
							CHANNELS 3 Zrotation Yrotation Xrotation
							End Site
							{
								OFFSET 0.000000 0.000000 0.000000
							}
						}
					}
				}
				JOINT LeftShoulder
				{
					OFFSET 0.000000 0.000000 0.000000
					CHANNELS 3 Zrotation Yrotation Xrotation
					JOINT LeftArm
					{
						OFFSET 3.362410 1.200890 -0.311210
						CHANNELS 3 Zrotation Yrotation Xrotation
						JOINT LeftForeArm
						{
							OFFSET 4.983000 -0.000000 -0.000000
							CHANNELS 3 Zrotation Yrotation Xrotation
							JOINT LeftHand
							{
								OFFSET 3.483560 -0.000000 -0.000000
								CHANNELS 3 Zrotation Yrotation Xrotation
								JOINT LeftFingerBase
								{
									OFFSET 0.000000 0.000000 0.000000
									CHANNELS 3 Zrotation Yrotation Xrotation
									JOINT LeftHandIndex1
									{
										OFFSET 0.715260 -0.000000 -0.000000
										CHANNELS 3 Zrotation Yrotation Xrotation
										End Site
										{
											OFFSET 0.000000 0.000000 0.000000
										}
									}
								}
								JOINT LThumb
								{
									OFFSET 0.000000 0.000000 0.000000
									CHANNELS 3 Zrotation Yrotation Xrotation
									End Site
									{
										OFFSET 0.000000 0.000000 0.000000
									}
								}
							}
						}
					}
				}
				JOINT RightShoulder
				{
					OFFSET 0.000000 0.000000 0.000000
					CHANNELS 3 Zrotation Yrotation Xrotation
					JOINT RightArm
					{
						OFFSET -3.136600 1.374050 -0.404650
						CHANNELS 3 Zrotation Yrotation Xrotation
						JOINT RightForeArm
						{
							OFFSET -5.241900 -0.000000 -0.000000
							CHANNELS 3 Zrotation Yrotation Xrotation
							JOINT RightHand
							{
								OFFSET -3.444170 -0.000000 -0.000000
								CHANNELS 3 Zrotation Yrotation Xrotation
								JOINT RightFingerBase
								{
									OFFSET 0.000000 0.000000 0.000000
									CHANNELS 3 Zrotation Yrotation Xrotation
									JOINT RightHandIndex1
									{
										OFFSET -0.622530 -0.000000 -0.000000
										CHANNELS 3 Zrotation Yrotation Xrotation
										End Site
										{
											OFFSET 0.000000 0.000000 0.000000
										}
									}
								}
								JOINT RThumb
								{
									OFFSET 0.000000 0.000000 0.000000
									CHANNELS 3 Zrotation Yrotation Xrotation
									End Site
									{
										OFFSET 0.000000 0.000000 0.000000
									}
								}
							}
						}
					}
				}
			}
		}
	}
}
MOTION
Frames: 11
Frame Time: 0.008333
-46.967345 16.744532 2.280481 -1.114004 85.468898 -2.613840 -0.266791 -3.293283 -3.525999 -3.193947 5.948486 -31.248086 6.102042 16.898476 48.712705 4.608856 -6.887032 18.040809 3.324500 -11.202700 -32.966400 -0.602023 2.443998 -1.107193 11.778695 -7.870635 -25.982100 -16.972254 -20.550032 78.755412 2.048250 -7.206243 8.772672 -3.853700 11.963100 -35.601500 -6.861553 5.998972 26.764929 -0.326317 6.934929 -1.563957 0.951728 3.849012 4.204882 -5.498744 -11.936943 -7.831239 6.064973 -16.612903 1.123105 8.193400 -4.482200 -4.083200 -0.964606 0.023527 1.378958 -74.168818 -0.181365 38.508538 18.465883 -35.936018 -9.522975 -1.443294 -3.877819 -23.340346 20.578908 19.734943 9.418600 -7.125000 0.000000 0.000000 -5.817000 54.162100 -1.313300 -1.475015 2.330729 2.525883 70.507685 21.740477 1.581981 -22.510491 32.828442 -14.102317 1.866377 -2.948785 -1.430826 -35.631396 33.424511 -24.337400 7.125000 0.000000 0.000000 -1.985200 12.652600 -2.373100 
-46.589760 16.822157 2.289106 0.533907 85.459359 -0.956549 -0.487569 -3.162840 -3.091794 -3.324899 6.042093 -30.599642 6.313536 16.943914 49.335956 4.561707 -6.858541 17.649884 2.775100 -10.321700 -30.024900 -0.715120 2.582913 -1.298490 12.095851 -7.965084 -27.613843 -16.655321 -20.623946 78.187777 1.256873 -4.943553 8.366754 -2.711900 10.213500 -29.670800 -7.451562 5.743092 27.482098 -0.263229 6.359812 -1.778597 1.454302 3.439098 2.499936 -6.112958 -11.256790 -7.094000 6.084826 -15.604572 1.379021 8.285000 -4.214900 -3.675700 -0.812051 -0.464072 1.222450 -72.682670 1.434794 39.336016 20.850452 -37.928573 -11.204423 -1.468693 -4.275648 -23.794360 21.704585 23.164527 11.497500 -7.125000 0.000000 0.000000 -5.793200 58.276100 -1.885500 -1.878625 2.646574 2.230359 71.136561 19.266916 2.687237 -25.311123 35.083932 -16.248698 1.800235 -2.866230 -1.040875 -37.190969 35.265222 -26.415600 7.125000 0.000000 0.000000 -2.259200 15.010700 -2.769000 
-46.214931 16.918470 2.299408 2.913544 85.567317 1.403615 -0.698391 -3.089987 -2.741253 -3.526468 6.089951 -30.004074 6.605183 17.043536 50.146873 4.220316 -6.122459 17.783312 2.545600 -9.920300 -28.718900 -0.818702 2.673444 -1.471920 12.360019 -8.244986 -29.080211 -16.309910 -20.662339 77.187327 1.094126 -4.486048 8.220452 -2.811400 10.383300 -30.227000 -7.687345 5.406891 28.105669 -0.226373 5.675785 -1.945677 1.202218 3.086349 1.226912 -5.877271 -10.744602 -6.388802 5.964372 -14.762759 1.530124 8.087700 -4.035100 -3.601900 -0.753552 -0.704412 1.126283 -70.460646 3.009968 40.694680 23.399053 -39.864646 -12.969988 -1.553295 -4.467475 -23.740189 23.184515 24.212907 12.823200 -7.125000 0.000000 0.000000 -4.447700 59.848200 -1.613800 -2.195875 2.847544 2.028181 72.097339 17.110520 3.094527 -28.309947 37.273905 -18.678758 1.637224 -2.741321 1.345667 -38.192469 35.781681 -27.347900 7.125000 0.000000 0.000000 -2.644400 15.693800 -3.264000 
-45.841539 17.031913 2.320492 4.624999 85.698753 3.235252 -0.797658 -3.033628 -2.536505 -3.681563 6.179546 -29.572091 6.982045 17.198731 51.087276 3.717328 -4.962530 17.945014 3.017900 -10.723900 -31.354400 -0.893130 2.798650 -1.713828 12.592660 -8.368289 -30.369179 -15.898636 -20.690490 76.004875 0.952594 -4.103490 8.090724 -2.990100 10.679000 -31.204600 -7.937001 5.001208 27.962136 -0.179976 5.145988 -1.982747 1.398352 2.758956 1.139740 -5.963244 -10.246406 -6.210950 5.903386 -14.024854 1.658498 8.096000 -3.746200 -3.666400 -0.780351 -0.653980 1.152131 -68.440239 3.757130 42.063420 25.677520 -41.600979 -14.615541 -1.666628 -4.569650 -23.421867 24.811916 24.663520 13.997900 -7.125000 0.000000 0.000000 -2.606800 60.778400 -1.002800 -2.400200 2.684491 1.954944 72.451758 15.825083 3.205991 -31.139237 39.194503 -21.101063 1.520045 -2.600636 4.144424 -38.971425 35.767043 -27.847000 7.125000 0.000000 0.000000 -3.118000 15.721100 -3.851000 
-45.470064 17.133736 2.348523 7.054953 85.721903 5.800145 -0.841154 -2.976727 -2.359417 -3.836051 6.287285 -29.292152 7.412186 17.397253 52.215461 3.264591 -3.997950 18.581427 3.243500 -11.079100 -32.547300 -0.967887 2.936928 -1.961501 12.656039 -8.313861 -31.568012 -15.450845 -20.691550 74.671325 0.879942 -3.924940 8.047357 -3.204500 11.019000 -32.344000 -8.508254 4.647416 27.789374 -0.116007 4.710291 -2.016299 2.040100 2.401224 1.180899 -6.211343 -9.631291 -6.359090 5.818522 -13.075136 1.827805 7.994100 -3.380800 -3.613000 -0.768697 -0.668683 1.158948 -66.794789 4.112366 42.852506 27.436203 -42.906406 -16.054034 -2.010352 -4.809897 -22.571543 28.903023 26.909613 17.709100 -7.125000 0.000000 0.000000 2.029800 64.320200 0.949900 -2.494492 2.523106 1.856676 72.370295 14.771762 3.364370 -33.748596 40.786901 -23.388903 1.464971 -2.470681 5.912863 -39.409786 36.100235 -28.268800 7.125000 0.000000 0.000000 -3.304100 16.009200 -4.092900 
-45.104099 17.213038 2.378591 9.552657 85.762144 8.303800 -0.849210 -2.928418 -2.212948 -3.955004 6.356832 -28.994113 7.901902 17.628996 53.543815 2.876524 -3.219102 19.804161 3.066400 -10.801800 -31.614400 -1.048536 3.043207 -2.210134 12.556865 -8.206366 -32.601055 -15.002727 -20.677705 73.295605 0.890889 -3.988592 7.898039 -3.250700 11.090200 -32.584800 -8.973224 4.310839 27.743318 -0.072148 4.268604 -2.025466 2.309165 2.079733 1.538600 -5.979305 -8.980583 -6.972513 5.697473 -12.033497 2.028111 7.705300 -3.003800 -3.440200 -0.820365 -0.638329 1.138373 -64.813601 4.024419 43.545514 29.139088 -43.923698 -17.241644 -2.209778 -4.529611 -21.271279 29.904512 24.504420 16.987700 -7.125000 0.000000 0.000000 4.197700 61.769800 1.714500 -2.534738 2.327174 1.756363 72.441497 14.272561 3.293724 -36.003640 42.034382 -25.421249 1.440342 -2.374347 6.261608 -39.098277 37.133392 -28.446900 7.125000 0.000000 0.000000 -2.851700 16.783900 -3.557300 
-44.732744 17.341216 2.420638 10.179665 85.896663 8.871671 -0.779540 -2.805423 -2.029562 -3.968663 6.956959 -28.719968 8.323634 17.774201 54.642449 2.669670 -2.765970 22.021042 2.316600 -9.496500 -27.361300 -1.015066 3.117972 -2.376118 12.476394 -8.060511 -33.220500 -14.375092 -20.594684 71.416294 0.969150 -4.262667 7.862822 -3.207200 11.023100 -32.357800 -9.165148 3.974160 27.867603 -0.034662 3.793753 -2.064308 2.312994 1.795205 1.548869 -5.622654 -8.291451 -7.257041 5.574336 -10.968230 2.257060 7.424300 -2.647600 -3.282700 -0.892808 -0.663314 1.117677 -62.690986 4.224645 44.594703 30.859854 -44.850380 -18.425585 -2.361333 -4.210819 -20.971023 31.226495 21.308439 15.822300 -7.125000 0.000000 0.000000 6.544800 58.265600 2.129800 -2.577699 2.228666 1.652564 72.633749 13.535217 3.146417 -37.908876 43.019537 -27.173208 1.463072 -2.297374 5.962604 -38.838360 38.054578 -28.635500 7.125000 0.000000 0.000000 -2.459700 17.501200 -3.087900 
-44.358274 17.448070 2.467956 7.329727 85.867320 5.929773 -0.753162 -2.623607 -1.806870 -3.658385 6.884553 -28.101627 8.808882 17.940613 55.639080 2.214265 -1.411456 24.095884 0.772800 -5.613200 -15.666100 -0.924641 3.245735 -2.527254 12.383976 -7.591963 -33.650182 -13.710254 -20.478691 69.441019 1.085136 -4.626834 8.269677 -3.211400 11.029700 -32.380000 -9.453712 3.680449 28.035142 0.038301 3.452175 -2.129445 2.934841 1.498398 1.105120 -5.829050 -7.565807 -6.976088 5.543408 -9.903264 2.417134 7.330900 -2.257100 -3.303300 -0.922882 -0.824202 1.126477 -61.162791 4.456560 45.824706 32.002391 -45.478113 -19.232394 -2.481127 -4.125481 -21.644810 32.606205 19.973700 15.733300 -7.125000 0.000000 0.000000 8.479500 56.921800 2.489500 -2.533061 2.235819 1.567161 72.255055 12.367262 3.282739 -39.387418 43.763100 -28.551257 1.504513 -2.198273 5.829532 -38.696010 38.325917 -28.596200 7.125000 0.000000 0.000000 -2.357400 17.582800 -2.961400 
-43.971705 17.584154 2.518867 2.913028 85.824279 1.300080 -0.674951 -2.423475 -1.621736 -3.372209 7.174785 -27.747906 9.372920 18.084679 56.459107 1.519306 0.839179 25.410716 0.514700 -4.598200 -12.766000 -0.737942 3.346031 -2.587711 12.172808 -7.051955 -33.662010 -12.912404 -20.267145 67.005010 1.322518 -5.343800 9.288192 -3.441400 11.377400 -33.563700 -9.710886 3.368860 28.380530 0.135333 3.114580 -2.217999 3.854580 1.194293 0.456631 -6.284534 -6.758780 -6.635534 5.539178 -8.725311 2.599149 7.266100 -1.820900 -3.243000 -0.851624 -0.973676 1.076603 -60.150541 6.396350 46.941040 34.246303 -46.869134 -21.043932 -2.520716 -4.138869 -22.222268 33.910721 19.900523 16.404100 -7.125000 0.000000 0.000000 10.116200 57.099800 3.019900 -2.457840 2.243307 1.455291 71.518365 11.004504 3.650271 -40.463132 44.282361 -29.556727 1.573259 -2.070076 5.486838 -38.704014 37.909073 -28.343400 7.125000 0.000000 0.000000 -2.568000 17.012400 -3.209700 
-43.567647 17.731498 2.555524 -0.159786 86.344108 -2.000935 -0.646748 -2.327197 -1.520817 -3.180626 7.045778 -27.517621 9.906660 18.248826 57.246281 0.864999 2.939677 26.149743 0.394700 -4.033900 -11.172000 -0.558932 3.351952 -2.555442 11.831559 -7.223190 -33.573487 -12.131488 -19.933134 64.338543 1.898412 -6.971622 10.329836 -4.227100 12.456700 -37.367300 -9.567152 2.776553 28.713276 0.235484 2.387515 -2.329440 4.264721 0.804487 -0.310055 -6.457915 -5.872167 -6.029239 5.500525 -7.469890 2.851270 7.182700 -1.375700 -3.244400 -0.862720 -1.092089 1.041558 -59.052045 8.212513 48.093695 35.883893 -47.971655 -22.850828 -2.218486 -5.144359 -23.628044 33.371269 26.917412 20.947500 -7.125000 0.000000 0.000000 8.791000 65.746400 4.419200 -2.420751 2.284628 1.360459 70.971511 9.520945 3.806160 -40.939594 44.530380 -30.049186 1.650648 -1.949344 4.838917 -38.621944 37.063774 -27.809000 7.125000 0.000000 0.000000 -2.857900 15.996700 -3.538600 
-43.160114 17.901243 2.600805 -3.387935 86.375235 -5.419928 -0.696909 -2.180453 -1.324219 -3.022308 7.162580 -26.831689 10.387563 18.329901 57.883287 0.079019 5.226738 25.598665 0.225400 -3.055700 -8.433800 -0.291329 3.346478 -2.568335 11.375299 -6.920951 -33.154965 -11.229156 -19.550246 61.166679 2.689888 -9.187683 11.774434 -5.050400 13.440300 -41.039800 -9.407880 2.425998 28.749791 0.286800 1.955829 -2.392982 4.358143 0.573730 -0.636181 -6.334749 -5.124343 -5.887779 5.433912 -6.395639 3.089164 7.015600 -0.991800 -3.138300 -0.897695 -1.143638 1.016894 -57.883543 9.251392 49.471455 37.363853 -48.846854 -24.316087 -1.856669 -5.698044 -25.350200 32.367304 30.266464 22.320200 -7.125000 0.000000 0.000000 6.089300 69.559600 3.584000 -2.365462 2.255389 1.265797 70.694983 8.562977 3.248501 -40.855159 44.478427 -30.064159 1.732612 -1.845082 4.007484 -38.291431 36.085924 -27.010300 7.125000 0.000000 0.000000 -3.046200 14.769600 -3.726600 
